<?xml version="1.0" encoding="UTF-8"?>
<svg xmlns="http://www.w3.org/2000/svg" viewBox="0 0 200 280">
  <!-- 학생 캐릭터 (슬픈 표정) -->
  <!-- 몸 -->
  <rect x="60" y="100" width="80" height="100" rx="10" fill="#4F86C6"/>
  
  <!-- 얼굴 -->
  <circle cx="100" cy="70" r="50" fill="#FFD7B5"/>
  
  <!-- 머리카락 -->
  <path d="M50 70 C50 40, 100 20, 150 70" fill="#663300" stroke="none"/>
  <path d="M60 100 C60 70, 100 50, 140 100" fill="#663300" stroke="none"/>
  
  <!-- 눈 (슬픈 표정) -->
  <path d="M80 65 Q85 75 90 65" stroke="#333" stroke-width="2" fill="none"/>
  <path d="M110 65 Q115 75 120 65" stroke="#333" stroke-width="2" fill="none"/>
  
  <!-- 눈물 -->
  <path d="M85 70 L85 80" stroke="#5299D3" stroke-width="2"/>
  <path d="M115 70 L115 80" stroke="#5299D3" stroke-width="2"/>
  
  <!-- 입 (슬픈 표정) -->
  <path d="M85 95 Q100 85 115 95" stroke="#333" stroke-width="2" fill="none"/>
  
  <!-- 팔 -->
  <rect x="40" y="120" width="20" height="60" rx="10" fill="#FFD7B5"/>
  <rect x="140" y="120" width="20" height="60" rx="10" fill="#FFD7B5"/>
  
  <!-- 다리 -->
  <rect x="65" y="200" width="25" height="70" rx="5" fill="#5D5D9E"/>
  <rect x="110" y="200" width="25" height="70" rx="5" fill="#5D5D9E"/>
  
  <!-- 신발 -->
  <ellipse cx="77.5" cy="270" rx="15" ry="7" fill="#333"/>
  <ellipse cx="122.5" cy="270" rx="15" ry="7" fill="#333"/>
</svg>
