<?xml version="1.0" encoding="UTF-8"?>
<svg xmlns="http://www.w3.org/2000/svg" xmlns:xlink="http://www.w3.org/1999/xlink" viewBox="0 0 300 400" width="300" height="400">
  <defs>
    <!-- 애니메이션 정의 -->
    <radialGradient id="skin-gradient" cx="50%" cy="50%" r="50%" fx="50%" fy="50%">
      <stop offset="0%" stop-color="#FFDFC4" />
      <stop offset="100%" stop-color="#F0C8A0" />
    </radialGradient>
    
    <linearGradient id="shirt-gradient" x1="0%" y1="0%" x2="0%" y2="100%">
      <stop offset="0%" stop-color="#5D8DC9" />
      <stop offset="100%" stop-color="#4A71A3" />
    </linearGradient>
    
    <linearGradient id="pants-gradient" x1="0%" y1="0%" x2="0%" y2="100%">
      <stop offset="0%" stop-color="#5D5D9E" />
      <stop offset="100%" stop-color="#484872" />
    </linearGradient>
    
    <filter id="shadow" x="-20%" y="-20%" width="140%" height="140%">
      <feGaussianBlur in="SourceAlpha" stdDeviation="3" />
      <feOffset dx="2" dy="4" />
      <feComposite in2="SourceAlpha" operator="arithmetic" k2="-1" k3="1" />
      <feColorMatrix type="matrix" values="0 0 0 0 0  0 0 0 0 0  0 0 0 0 0  0 0 0 0.3 0" />
      <feBlend in="SourceGraphic" />
    </filter>
  </defs>
  
  <!-- 배경 - 약간의 그림자 효과 -->
  <ellipse cx="150" cy="360" rx="70" ry="15" fill="rgba(0,0,0,0.1)" />
  
  <!-- 몸통 그룹 -->
  <g id="body" filter="url(#shadow)">
    <!-- 바지 -->
    <path id="pants" d="M120 220 L120 330 C120 340, 100 340, 100 330 L100 280 L100 220 Z" fill="url(#pants-gradient)" />
    <path id="pants-right" d="M180 220 L180 330 C180 340, 200 340, 200 330 L200 280 L200 220 Z" fill="url(#pants-gradient)" />
    
    <!-- 양말과 신발 -->
    <ellipse cx="100" cy="340" rx="20" ry="10" fill="#333" />
    <ellipse cx="200" cy="340" rx="20" ry="10" fill="#333" />
    
    <!-- 셔츠 -->
    <rect id="shirt" x="100" y="150" width="100" height="80" rx="15" fill="url(#shirt-gradient)" />
    
    <!-- 팔 -->
    <rect id="left-arm" x="75" y="160" width="20" height="60" rx="10" fill="url(#skin-gradient)" />
    <rect id="right-arm" x="205" y="160" width="20" height="60" rx="10" fill="url(#skin-gradient)" />
  </g>
  
  <!-- 머리 그룹 -->
  <g id="head" filter="url(#shadow)">
    <!-- 얼굴 -->
    <circle cx="150" cy="110" r="50" fill="url(#skin-gradient)" />
    
    <!-- 머리카락 - 얼굴을 덜 가리도록 수정 -->
    <path id="hair-back" d="M100 70 C100 45, 120 30, 150 30 C180 30, 200 45, 200 70 L200 75 C200 100, 180 110, 150 110 C120 110, 100 100, 100 75 Z" fill="#663300" />
    
    <!-- 앞머리 - 눈과 얼굴의 많은 부분이 보이도록 수정 -->
    <path id="hair-front" d="M100 70 C100 45, 120 30, 150 30 C180 30, 200 45, 200 70 L200 75 
                           C200 80, 195 88, 185 90 C185 90, 175 65, 170 65 
                           C170 65, 160 65, 150 65
                           C140 65, 130 65, 130 65
                           C125 65, 115 90, 115 90
                           C105 88, 100 80, 100 75 Z" fill="#7C4D32" />
    
    <!-- 눈 -->
    <g id="eyes">
      <g id="left-eye">
        <ellipse cx="130" cy="100" rx="10" ry="8" fill="white" />
        <circle id="left-pupil" cx="132" cy="100" r="4" fill="#333">
          <animate attributeName="cx" values="132;134;132;130;132" dur="5s" repeatCount="indefinite" />
        </circle>
        <path id="left-eyelid" d="M120 100 Q130 88 140 100" fill="none" stroke="#7C4D32" stroke-width="2">
          <animate attributeName="d" values="M120 100 Q130 88 140 100;M120 100 Q130 92 140 100;M120 100 Q130 88 140 100" dur="5s" repeatCount="indefinite" />
        </path>
      </g>
      
      <g id="right-eye">
        <ellipse cx="170" cy="100" rx="10" ry="8" fill="white" />
        <circle id="right-pupil" cx="172" cy="100" r="4" fill="#333">
          <animate attributeName="cx" values="172;174;172;170;172" dur="5s" repeatCount="indefinite" />
        </circle>
        <path id="right-eyelid" d="M160 100 Q170 88 180 100" fill="none" stroke="#7C4D32" stroke-width="2">
          <animate attributeName="d" values="M160 100 Q170 88 180 100;M160 100 Q170 92 180 100;M160 100 Q170 88 180 100" dur="5s" repeatCount="indefinite" />
        </path>
      </g>
    </g>
    
    <!-- 코 -->
    <path d="M150 115 Q155 120 150 125" fill="none" stroke="#7A5C4E" stroke-width="2" />
    
    <!-- 입 (기본 웃는 표정) -->
    <path id="mouth" d="M135 130 Q150 140 165 130" fill="none" stroke="#333" stroke-width="2">
      <animate attributeName="d" values="M135 130 Q150 140 165 130;M135 132 Q150 142 165 132;M135 130 Q150 140 165 130" dur="5s" repeatCount="indefinite" />
    </path>
    
    <!-- 눈썹 -->
    <path id="left-eyebrow" d="M125 85 Q135 80 145 85" fill="none" stroke="#7C4D32" stroke-width="2.5" />
    <path id="right-eyebrow" d="M155 85 Q165 80 175 85" fill="none" stroke="#7C4D32" stroke-width="2.5" />
    
    <!-- 생각 버블 (항상 표시) -->
    <g id="thought-bubble">
      <circle cx="215" cy="50" r="15" fill="white" stroke="#333" stroke-width="1" opacity="0.9" />
      <circle cx="200" cy="65" r="10" fill="white" stroke="#333" stroke-width="1" opacity="0.7" />
      <circle cx="190" cy="75" r="5" fill="white" stroke="#333" stroke-width="1" opacity="0.5" />
      <animate attributeName="opacity" values="0.9;0.7;0.9" dur="3s" repeatCount="indefinite" />
    </g>
  </g>
  
  <!-- 몸 전체 애니메이션 -->
  <animateTransform 
    xlink:href="#body"
    attributeName="transform"
    type="translate"
    values="0 0; 0 -5; 0 0"
    dur="3s"
    repeatCount="indefinite" />
    
  <animateTransform 
    xlink:href="#head"
    attributeName="transform"
    type="translate"
    values="0 0; 0 -7; 0 0"
    dur="3s"
    repeatCount="indefinite" />
</svg>
