<?xml version="1.0" encoding="UTF-8"?>
<svg xmlns="http://www.w3.org/2000/svg" xmlns:xlink="http://www.w3.org/1999/xlink" viewBox="0 0 300 400" width="300" height="400">
  <defs>
    <!-- 애니메이션 정의 -->
    <radialGradient id="skin-gradient" cx="50%" cy="50%" r="50%" fx="50%" fy="50%">
      <stop offset="0%" stop-color="#FFDFC4" />
      <stop offset="100%" stop-color="#F0C8A0" />
    </radialGradient>
    
    <linearGradient id="shirt-gradient" x1="0%" y1="0%" x2="0%" y2="100%">
      <stop offset="0%" stop-color="#5D8DC9" />
      <stop offset="100%" stop-color="#4A71A3" />
    </linearGradient>
    
    <linearGradient id="pants-gradient" x1="0%" y1="0%" x2="0%" y2="100%">
      <stop offset="0%" stop-color="#5D5D9E" />
      <stop offset="100%" stop-color="#484872" />
    </linearGradient>
    
    <filter id="shadow" x="-20%" y="-20%" width="140%" height="140%">
      <feGaussianBlur in="SourceAlpha" stdDeviation="3" />
      <feOffset dx="2" dy="4" />
      <feComposite in2="SourceAlpha" operator="arithmetic" k2="-1" k3="1" />
      <feColorMatrix type="matrix" values="0 0 0 0 0  0 0 0 0 0  0 0 0 0 0  0 0 0 0.3 0" />
      <feBlend in="SourceGraphic" />
    </filter>
    
    <!-- 눈물 방울 -->
    <filter id="teardrop-filter" x="-50%" y="-50%" width="200%" height="200%">
      <feGaussianBlur in="SourceGraphic" stdDeviation="1" />
    </filter>
  </defs>
  
  <!-- 배경 - 약간의 그림자 효과 -->
  <ellipse cx="150" cy="360" rx="70" ry="15" fill="rgba(0,0,0,0.1)" />
  
  <!-- 몸통 그룹 -->
  <g id="body" filter="url(#shadow)">
    <!-- 바지 -->
    <path id="pants" d="M120 220 L120 330 C120 340, 100 340, 100 330 L100 280 L100 220 Z" fill="url(#pants-gradient)" />
    <path id="pants-right" d="M180 220 L180 330 C180 340, 200 340, 200 330 L200 280 L200 220 Z" fill="url(#pants-gradient)" />
    
    <!-- 양말과 신발 -->
    <ellipse cx="100" cy="340" rx="20" ry="10" fill="#333" />
    <ellipse cx="200" cy="340" rx="20" ry="10" fill="#333" />
    
    <!-- 셔츠 -->
    <rect id="shirt" x="100" y="150" width="100" height="80" rx="15" fill="url(#shirt-gradient)" />
    
    <!-- 팔 (축 늘어진 모습) -->
    <rect id="left-arm" x="75" y="160" width="20" height="60" rx="10" fill="url(#skin-gradient)" transform="rotate(5, 85, 160)" />
    <rect id="right-arm" x="205" y="160" width="20" height="60" rx="10" fill="url(#skin-gradient)" transform="rotate(-5, 215, 160)" />
  </g>
  
  <!-- 머리 그룹 -->
  <g id="head" filter="url(#shadow)">
    <!-- 얼굴 -->
    <circle cx="150" cy="110" r="50" fill="url(#skin-gradient)" />
    
    <!-- 머리카락 (처진 모습) -->
    <path id="hair-back" d="M100 85 C100 60, 120 40, 150 40 C180 40, 200 60, 200 85 C200 110, 180 130, 150 130 C120 130, 100 110, 100 85 Z" fill="#663300" />
    <path id="hair-front" d="M100 85 C100 60, 120 40, 150 40 C180 40, 200 60, 200 85 L200 85 C200 95, 190 105, 180 110 C165 115, 135 115, 120 110 C110 105, 100 95, 100 85 Z" fill="#7C4D32" />
    
    <!-- 눈 (슬픈 모양) -->
    <g id="eyes">
      <path id="left-eye" d="M125 105 Q130 100 135 105" stroke="#333" stroke-width="2" fill="none" />
      <path id="right-eye" d="M165 105 Q170 100 175 105" stroke="#333" stroke-width="2" fill="none" />
      
      <!-- 눈물 -->
      <g id="tears" filter="url(#teardrop-filter)">
        <circle id="left-tear1" cx="130" cy="110" r="3" fill="#5299D3" opacity="0.8">
          <animate attributeName="cy" values="110;130;160" dur="2s" repeatCount="indefinite" />
          <animate attributeName="opacity" values="0.8;0.6;0" dur="2s" repeatCount="indefinite" />
        </circle>
        
        <circle id="right-tear1" cx="170" cy="110" r="3" fill="#5299D3" opacity="0.8">
          <animate attributeName="cy" values="110;130;160" dur="2s" begin="0.5s" repeatCount="indefinite" />
          <animate attributeName="opacity" values="0.8;0.6;0" dur="2s" begin="0.5s" repeatCount="indefinite" />
        </circle>
      </g>
    </g>
    
    <!-- 코 -->
    <path d="M150 115 Q155 120 150 125" fill="none" stroke="#7A5C4E" stroke-width="2" />
    
    <!-- 입 (슬픈 표정) -->
    <path id="mouth" d="M135 140 Q150 130 165 140" fill="none" stroke="#333" stroke-width="2">
      <animate attributeName="d" values="M135 140 Q150 130 165 140;M135 141 Q150 131 165 141;M135 140 Q150 130 165 140" dur="4s" repeatCount="indefinite" />
    </path>
    
    <!-- 눈썹 (슬픈 모양) -->
    <path id="left-eyebrow" d="M125 85 Q135 90 145 85" fill="none" stroke="#7C4D32" stroke-width="2.5">
      <animate attributeName="d" values="M125 85 Q135 90 145 85;M125 86 Q135 91 145 86;M125 85 Q135 90 145 85" dur="4s" repeatCount="indefinite" />
    </path>
    <path id="right-eyebrow" d="M155 85 Q165 90 175 85" fill="none" stroke="#7C4D32" stroke-width="2.5">
      <animate attributeName="d" values="M155 85 Q165 90 175 85;M155 86 Q165 91 175 86;M155 85 Q165 90 175 85" dur="4s" repeatCount="indefinite" />
    </path>
  </g>
  
  <!-- 비 내리는 효과 (슬픔) -->
  <g id="raindrops" opacity="0.3">
    <rect x="95" y="20" width="1" height="10" fill="#5299D3">
      <animate attributeName="y" values="20;380" dur="1.5s" begin="0s" repeatCount="indefinite" />
    </rect>
    <rect x="130" y="40" width="1" height="10" fill="#5299D3">
      <animate attributeName="y" values="40;380" dur="1.3s" begin="0.2s" repeatCount="indefinite" />
    </rect>
    <rect x="165" y="10" width="1" height="10" fill="#5299D3">
      <animate attributeName="y" values="10;380" dur="1.4s" begin="0.5s" repeatCount="indefinite" />
    </rect>
    <rect x="200" y="30" width="1" height="10" fill="#5299D3">
      <animate attributeName="y" values="30;380" dur="1.6s" begin="0.7s" repeatCount="indefinite" />
    </rect>
    <rect x="230" y="50" width="1" height="10" fill="#5299D3">
      <animate attributeName="y" values="50;380" dur="1.2s" begin="0.3s" repeatCount="indefinite" />
    </rect>
  </g>
  
  <!-- 몸 전체 애니메이션 (슬픔 - 느리게 흔들림) -->
  <animateTransform 
    xlink:href="#body"
    attributeName="transform"
    type="rotate"
    values="-1 150 200; 1 150 200; -1 150 200"
    dur="4s"
    repeatCount="indefinite" />
    
  <animateTransform 
    xlink:href="#head"
    attributeName="transform"
    type="rotate"
    values="-1 150 110; 1 150 110; -1 150 110"
    dur="4s"
    repeatCount="indefinite" />
</svg>
