<?xml version="1.0" encoding="UTF-8"?>
<svg xmlns="http://www.w3.org/2000/svg" viewBox="0 0 200 280">
  <!-- 선생님 캐릭터 -->
  <!-- 몸 -->
  <rect x="60" y="100" width="80" height="110" rx="5" fill="#3A7728"/>
  
  <!-- 얼굴 -->
  <circle cx="100" cy="70" r="50" fill="#FFDAB9"/>
  
  <!-- a머리카락 -->
  <path d="M60 50 C60 30, 100 10, 140 50" fill="#333" stroke="none"/>
  <path d="M60 70 C60 50, 100 30, 140 70" fill="#333" stroke="none"/>
  
  <!-- 안경 -->
  <circle cx="85" cy="65" r="12" fill="none" stroke="#333" stroke-width="2"/>
  <circle cx="115" cy="65" r="12" fill="none" stroke="#333" stroke-width="2"/>
  <line x1="97" y1="65" x2="103" y2="65" stroke="#333" stroke-width="2"/>
  
  <!-- 눈 -->
  <ellipse cx="85" cy="65" rx="3" ry="5" fill="#333"/>
  <ellipse cx="115" cy="65" rx="3" ry="5" fill="#333"/>
  
  <!-- 입 -->
  <path d="M90 85 Q100 90 110 85" stroke="#333" stroke-width="2" fill="none"/>
  
  <!-- 팔 -->
  <rect x="40" y="120" width="20" height="60" rx="10" fill="#FFDAB9"/>
  <rect x="140" y="120" width="20" height="60" rx="10" fill="#FFDAB9"/>
  
  <!-- 다리 -->
  <rect x="65" y="210" width="25" height="60" rx="5" fill="#333"/>
  <rect x="110" y="210" width="25" height="60" rx="5" fill="#333"/>
  
  <!-- 신발 -->
  <ellipse cx="77.5" cy="270" rx="15" ry="7" fill="#000"/>
  <ellipse cx="122.5" cy="270" rx="15" ry="7" fill="#000"/>
  
  <!-- 책 -->
  <rect x="50" y="130" width="30" height="25" fill="#D2B48C" stroke="#333"/>
  <line x1="65" y1="130" x2="65" y2="155" stroke="#333" stroke-width="1"/>
  <line x1="60" y1="140" x2="70" y2="140" stroke="#333" stroke-width="1"/>
  <line x1="60" y1="145" x2="70" y2="145" stroke="#333" stroke-width="1"/>
</svg>
