<?xml version="1.0" encoding="UTF-8"?>
<svg xmlns="http://www.w3.org/2000/svg" xmlns:xlink="http://www.w3.org/1999/xlink" viewBox="0 0 300 400" width="300" height="400">
  <defs>
    <!-- 애니메이션 정의 -->
    <radialGradient id="skin-gradient" cx="50%" cy="50%" r="50%" fx="50%" fy="50%">
      <stop offset="0%" stop-color="#FFDFC4" />
      <stop offset="100%" stop-color="#E8C0A0" />
    </radialGradient>
    
    <linearGradient id="shirt-gradient" x1="0%" y1="0%" x2="0%" y2="100%">
      <stop offset="0%" stop-color="#3A7728" />
      <stop offset="100%" stop-color="#2A5C1E" />
    </linearGradient>
    
    <linearGradient id="pants-gradient" x1="0%" y1="0%" x2="0%" y2="100%">
      <stop offset="0%" stop-color="#333" />
      <stop offset="100%" stop-color="#222" />
    </linearGradient>
    
    <filter id="shadow" x="-20%" y="-20%" width="140%" height="140%">
      <feGaussianBlur in="SourceAlpha" stdDeviation="3" />
      <feOffset dx="2" dy="4" />
      <feComposite in2="SourceAlpha" operator="arithmetic" k2="-1" k3="1" />
      <feColorMatrix type="matrix" values="0 0 0 0 0  0 0 0 0 0  0 0 0 0 0  0 0 0 0.3 0" />
      <feBlend in="SourceGraphic" />
    </filter>
    
    <filter id="glasses-shine" x="-30%" y="-30%" width="160%" height="160%">
      <feGaussianBlur in="SourceAlpha" stdDeviation="1" />
      <feOffset dx="1" dy="1" />
      <feComposite in2="SourceAlpha" operator="arithmetic" k2="-1" k3="1" />
      <feColorMatrix type="matrix" values="0 0 0 0 1  0 0 0 0 1  0 0 0 0 1  0 0 0 0.3 0" />
      <feBlend in="SourceGraphic" />
    </filter>
  </defs>
  
  <!-- 배경 - 약간의 그림자 효과 -->
  <ellipse cx="150" cy="360" rx="70" ry="15" fill="rgba(0,0,0,0.1)" />
  
  <!-- 몸통 그룹 -->
  <g id="body" filter="url(#shadow)">
    <!-- 바지 -->
    <path id="pants" d="M120 220 L120 330 C120 340, 100 340, 100 330 L100 280 L100 220 Z" fill="url(#pants-gradient)" />
    <path id="pants-right" d="M180 220 L180 330 C180 340, 200 340, 200 330 L200 280 L200 220 Z" fill="url(#pants-gradient)" />
    
    <!-- 양말과 신발 -->
    <ellipse cx="100" cy="340" rx="20" ry="10" fill="#000" />
    <ellipse cx="200" cy="340" rx="20" ry="10" fill="#000" />
    
    <!-- 셔츠 -->
    <rect id="shirt" x="100" y="150" width="100" height="90" rx="5" fill="url(#shirt-gradient)" />
    
    <!-- 팔 -->
    <g id="left-arm">
      <rect x="75" y="160" width="20" height="60" rx="10" fill="url(#skin-gradient)" />
      
      <!-- 책을 들고 있는 모습 -->
      <rect x="60" y="200" width="35" height="25" rx="2" fill="#D2B48C" stroke="#5A4A39" stroke-width="1" />
      <line x1="77" y1="200" x2="77" y2="225" stroke="#5A4A39" stroke-width="1" />
      <line x1="68" y1="208" x2="86" y2="208" stroke="#5A4A39" stroke-width="0.5" />
      <line x1="68" y1="216" x2="86" y2="216" stroke="#5A4A39" stroke-width="0.5" />
    </g>
    
    <rect id="right-arm" x="205" y="160" width="20" height="60" rx="10" fill="url(#skin-gradient)">
      <animateTransform attributeName="transform" type="rotate" values="0 215 160; 10 215 160; 0 215 160; -5 215 160; 0 215 160" dur="8s" repeatCount="indefinite" />
    </rect>
  </g>
  
  <!-- 머리 그룹 -->
  <g id="head" filter="url(#shadow)">
    <!-- 얼굴 -->
    <circle cx="150" cy="110" r="50" fill="url(#skin-gradient)" />
    
    <!-- 머리카락 - 수정된 부분 (더 적은 부분을 가리도록) -->
    <path id="hair-back" d="M100 65 C100 55, 120 40, 150 40 C180 40, 200 55, 200 65 C200 90, 190 105, 150 110 C110 105, 100 90, 100 65 Z" fill="#333" />
    <path id="hair-side" d="M100 65 C100 55, 120 40, 150 40 C180 40, 200 55, 200 65 L200 65 C200 75, 190 85, 175 85 C165 87, 135 87, 125 85 C110 85, 100 75, 100 65 Z" fill="#444" />
    
    <!-- 안경 -->
    <g id="glasses" filter="url(#glasses-shine)">
      <circle cx="130" cy="100" r="15" fill="none" stroke="#333" stroke-width="2" />
      <circle cx="170" cy="100" r="15" fill="none" stroke="#333" stroke-width="2" />
      <path d="M145 100 L155 100" stroke="#333" stroke-width="2" />
      <path d="M100 100 L115 100" stroke="#333" stroke-width="2" />
      <path d="M185 100 L200 100" stroke="#333" stroke-width="2" />
      
      <!-- 안경 반짝임 -->
      <path d="M125 93 L132 90" stroke="white" stroke-width="1.5" opacity="0.8">
        <animate attributeName="opacity" values="0.8;0.2;0.8" dur="5s" repeatCount="indefinite" />
      </path>
      <path d="M165 93 L172 90" stroke="white" stroke-width="1.5" opacity="0.8">
        <animate attributeName="opacity" values="0.8;0.2;0.8" dur="5s" repeatCount="indefinite" />
      </path>
    </g>
    
    <!-- 눈 -->
    <g id="eyes">
      <ellipse cx="130" cy="100" rx="5" ry="7" fill="#333" />
      <ellipse cx="170" cy="100" rx="5" ry="7" fill="#333" />
    </g>
    
    <!-- 코 -->
    <path d="M150 115 Q155 120 150 125" fill="none" stroke="#7A5C4E" stroke-width="2" />
    
    <!-- 입 -->
    <path id="mouth" d="M140 130 Q150 135 160 130" fill="none" stroke="#333" stroke-width="2">
      <animate attributeName="d" values="M140 130 Q150 135 160 130;M140 131 Q150 136 160 131;M140 130 Q150 135 160 130" dur="5s" repeatCount="indefinite" />
    </path>
    
    <!-- 눈썹 -->
    <path id="left-eyebrow" d="M120 85 Q130 80 140 85" fill="none" stroke="#333" stroke-width="2.5" />
    <path id="right-eyebrow" d="M160 85 Q170 80 180 85" fill="none" stroke="#333" stroke-width="2.5" />
  </g>
  
  <!-- 지식 버블 효과 -->
  <g id="knowledge-bubbles" opacity="0.7">
    <g id="bubble1" transform="translate(40, 40)">
      <text x="0" y="0" font-family="monospace" font-size="12" fill="#333">1443</text>
      <animateTransform 
        attributeName="transform" 
        type="translate" 
        values="40,40; 20,20; 40,40" 
        dur="8s" 
        repeatCount="indefinite" />
      <animate 
        attributeName="opacity" 
        values="0;0.7;0" 
        dur="8s" 
        repeatCount="indefinite" />
    </g>
    
    <g id="bubble2" transform="translate(200, 50)">
      <text x="0" y="0" font-family="monospace" font-size="12" fill="#333">1592</text>
      <animateTransform 
        attributeName="transform" 
        type="translate" 
        values="200,50; 220,30; 200,50" 
        dur="7s" 
        begin="1s"
        repeatCount="indefinite" />
      <animate 
        attributeName="opacity" 
        values="0;0.7;0" 
        dur="7s" 
        begin="1s"
        repeatCount="indefinite" />
    </g>
    
    <g id="bubble3" transform="translate(240, 100)">
      <text x="0" y="0" font-family="monospace" font-size="12" fill="#333">세종</text>
      <animateTransform 
        attributeName="transform" 
        type="translate" 
        values="240,100; 260,80; 240,100" 
        dur="9s" 
        begin="2s"
        repeatCount="indefinite" />
      <animate 
        attributeName="opacity" 
        values="0;0.7;0" 
        dur="9s" 
        begin="2s"
        repeatCount="indefinite" />
    </g>
  </g>
  
  <!-- 몸 전체 애니메이션 -->
  <animateTransform 
    xlink:href="#body"
    attributeName="transform"
    type="translate"
    values="0 0; 0 -3; 0 0"
    dur="4s"
    repeatCount="indefinite" />
    
  <animateTransform 
    xlink:href="#head"
    attributeName="transform"
    type="translate"
    values="0 0; 0 -5; 0 0"
    dur="4s"
    repeatCount="indefinite" />
    
  <!-- 가르치는 모션 -->
  <animateTransform 
    xlink:href="#left-arm"
    attributeName="transform"
    type="rotate"
    values="0 85 160; -5 85 160; 0 85 160"
    dur="8s"
    repeatCount="indefinite" />
</svg>
